<svg xmlns:dc="http://purl.org/dc/elements/1.1/" xmlns:cc="http://creativecommons.org/ns#" xmlns:rdf="http://www.w3.org/1999/02/22-rdf-syntax-ns#" xmlns:svg="http://www.w3.org/2000/svg" xmlns="http://www.w3.org/2000/svg" xmlns:sodipodi="http://sodipodi.sourceforge.net/DTD/sodipodi-0.dtd" xmlns:inkscape="http://www.inkscape.org/namespaces/inkscape" version="1.1" x="0px" y="0px" viewBox="0 0 100 125"><g transform="translate(0,-952.36218)"><path style="text-indent:0;text-transform:none;direction:ltr;block-progression:tb;baseline-shift:baseline;color:#000000;enable-background:accumulate;" d="M 20.7812,957.36216 C 14.2029,957.36216 9,962.88986 9,969.33326 l 0,40.03884 c 0,6.5322 5.4127,12.0023 12,12.0023 l 9.5,0 -3.4688,22.5354 a 3.0003,3.0008706 0 0 0 5.3438,2.2818 l 19.0938,-24.8172 27.5312,0 c 6.4598,0 12,-5.1575 12,-11.6898 l 0,-40.35134 c 0,-6.5325 -5.4217,-11.9711 -12,-11.9711 l -58.2188,0 z m 0,6.0011 58.2188,0 c 3.1563,0 6,2.8721 6,5.97 l 0,40.35134 c 0,3.0978 -2.7252,5.6886 -6,5.6886 l -29,0 a 3.0003,3.0008706 0 0 0 -2.375,1.1564 l -12.875,16.7532 2.2188,-14.4714 A 3.0003,3.0008706 0 0 0 34,1015.3732 l -13,0 c -3.1473,0 -6,-2.9033 -6,-6.0011 l 0,-40.03884 c 0,-3.187 2.6248,-5.97 5.7812,-5.97 z m 33.0938,10.0019 c -1.2685,0.049 -2.4203,0.9304 -2.75,2.1566 l -8,28.00544 c -0.5726,1.5436 0.3863,3.2669 1.9688,3.7195 1.6206,0.4636 3.4452,-0.4512 3.7812,-2.0629 l 8,-28.00534 c 0.5551,-1.8183 -1.1005,-3.8762 -3,-3.8133 z m -14.6562,3.9383 c -0.1687,-0.012 -0.331,0.012 -0.5,0.031 -0.4662,0.051 -0.9197,0.2128 -1.3126,0.4688 l -16,10.0019 c -0.8607,0.5361 -1.4062,1.5487 -1.4062,2.563 0,1.0143 0.5455,1.9954 1.4062,2.5316 l 16,10.00194 c 1.3336,0.8348 3.3218,0.3651 4.1563,-0.9688 0.8345,-1.334 0.3648,-3.29114 -0.9687,-4.12584 l -11.9376,-7.4389 11.9376,-7.4703 c 1.1721,-0.6935 1.7474,-2.2409 1.3124,-3.5318 -0.3807,-1.1296 -1.5068,-1.9808 -2.6874,-2.0629 z m 21.6562,0.031 c -1.2822,0.039 -2.485,0.9785 -2.8125,2.2191 -0.3275,1.2406 0.2477,2.6776 1.3437,3.3443 l 11.9376,7.4703 -11.9376,7.4389 c -1.3335,0.8347 -1.8032,2.79184 -0.9687,4.12584 0.8345,1.3339 2.8227,1.8037 4.1563,0.9688 l 16,-10.00194 c 0.8607,-0.5362 1.4062,-1.5173 1.4062,-2.5316 0,-1.0143 -0.5456,-2.0269 -1.4062,-2.563 l -16,-10.0019 c -0.5085,-0.3243 -1.1162,-0.49 -1.7188,-0.4688 z" fill="#000000" fill-opacity="1" stroke="none" marker="none" visibility="visible" display="inline" overflow="visible"/></g><text x="0" y="115" fill="#000000" font-size="5px" font-weight="bold" font-family="'Helvetica Neue', Helvetica, Arial-Unicode, Arial, Sans-serif">Created by unlimicon</text><text x="0" y="120" fill="#000000" font-size="5px" font-weight="bold" font-family="'Helvetica Neue', Helvetica, Arial-Unicode, Arial, Sans-serif">from the Noun Project</text></svg>